#!OML:ASF E:\Mandelcareful walks\Project 1\Capture day 1\Session 1\Subject1.ASF
:FULLY-SPECIFIED
:DEGREES
736
root 27.0139 14.2769 13.0002 408.042 71.9733 755.088
lowerback 34.5979 -3.65839 4.20388
upperback 9.4945 -2.45298 -2.3812
thorax -7.31591 -0.718651 -3.89168
lowerneck -27.3802 15.0968 7.65277
upperneck 14.8174 25.3224 -26.0168
head 14.6641 9.11918 -5.39931
rclavicle -7.95139e-016 5.56597e-015
rhumerus -25.4204 39.1081 -84.4453
rradius 63.1317
rwrist -74.6308
rhand -6.83144 -41.7572
rfingers 7.12502
rthumb 19.0329 -790.846
lclavicle -7.95139e-016 5.56597e-015
lhumerus 94.059 -74.6205 -3.3618
lradius 58.3863
lwrist 1.25727
lhand -22.7109 -23.6577
lfingers 7.12502
lthumb 3.72228 6.28956
rfemur -52.8028 -14.2765 1.2259
rtibia 76.3476
rfoot -29.8243 -12.2595
rtoes -12.4767
lfemur -58.9682 25.9846 -21.0436
ltibia 54.4933
lfoot -9.08578 15.2985
ltoes -4.4228
737
root 27.096 14.27 12.933 408.203 72.3618 755.209
lowerback 34.9984 -3.73849 3.9149
upperback 9.32289 -2.62529 -2.29721
thorax -7.64821 -0.808884 -3.57567
lowerneck -26.6613 15.1714 7.37998
upperneck 14.4066 25.4297 -26.0647
head 14.3404 9.24779 -5.35255
rclavicle -1.98785e-014 -2.94201e-014
rhumerus -25.9006 39.3316 -84.7183
rradius 62.9771
rwrist -74.3899
rhand -6.58088 -40.702
rfingers 7.12502
rthumb 19.2739 -789.767
lclavicle -1.98785e-014 -2.94201e-014
lhumerus 91.7247 -75.0889 -0.797735
lradius 58.1201
lwrist 0.980451
lhand -22.6615 -23.6628
lfingers 7.12502
lthumb 3.76998 6.2836
rfemur -52.3069 -14.3631 0.993277
rtibia 76.3644
rfoot -30.1349 -12.3388
rtoes -12.5623
lfemur -59.2631 26.0634 -20.8105
ltibia 53.2102
lfoot -8.88893 15.7095
ltoes -6.35629
738
root 27.2008 14.239 12.8465 407.274 72.3289 754.096
lowerback 34.677 -3.49714 3.54011
upperback 9.58535 -2.45983 -2.40231
thorax -7.22616 -0.714682 -3.5596
lowerneck -26.5478 15.2837 7.30555
upperneck 13.9368 25.5501 -26.2895
head 14.1852 9.33124 -5.37451
rclavicle -1.11319e-014 -1.82882e-014
rhumerus -25.375 39.2253 -84.4456
rradius 62.6745
rwrist -74.3568
rhand -5.97787 -41.7075
rfingers 7.12502
rthumb 19.8536 -790.713
lclavicle -1.11319e-014 -1.82882e-014
lhumerus 91.5131 -74.8364 -0.511993
lradius 58.0611
lwrist 0.933589
lhand -22.7968 -23.2884
lfingers 7.12502
lthumb 3.63933 6.66028
rfemur -52.1636 -14.0426 0.633592
rtibia 76.4161
rfoot -30.3361 -12.3455
rtoes -12.7949
lfemur -59.4552 26.4265 -20.6468
ltibia 52.6598
lfoot -9.63819 15.7098
ltoes -5.45536
739
root 27.289 14.2049 12.756 406.774 72.3167 753.42
lowerback 34.7243 -3.15397 2.92658
upperback 9.65661 -2.24163 -2.53831
thorax -7.13694 -0.605619 -3.45877
lowerneck -26.6469 15.477 7.72482
upperneck 13.8544 25.7048 -26.4671
head 14.3014 9.39704 -5.45118
rclavicle -1.51076e-014 -1.74931e-014
rhumerus -25.7204 38.6367 -84.7641
rradius 62.7661
rwrist -74.1071
rhand -5.75536 -42.7853
rfingers 7.12502
rthumb 20.0675 -791.769
lclavicle -1.51076e-014 -1.74931e-014
lhumerus 92.5699 -74.6674 -1.62646
lradius 58.0531
lwrist 0.954595
lhand -22.8926 -23.1547
lfingers 7.12502
lthumb 3.54684 6.79553
rfemur -52.0988 -13.8298 0.226591
rtibia 76.5063
rfoot -30.3762 -12.5726
rtoes -13.7707
lfemur -59.9825 26.8234 -20.7444
ltibia 52.7401
lfoot -9.12897 15.3848
ltoes -5.57534
740
root 27.3875 14.1784 12.6467 406.121 72.4717 752.676
lowerback 35.0336 -2.9743 2.58867
upperback 9.50355 -2.1355 -2.56973
thorax -7.39902 -0.563442 -3.34636
lowerneck -25.9719 15.3028 7.87927
upperneck 13.0717 25.2606 -26.7869
head 13.853 9.32096 -5.72188
rclavicle -1.19271e-014 -2.38542e-015
rhumerus -26.2236 38.4694 -85.1087
rradius 62.4939
rwrist -73.9817
rhand -5.40728 -41.8893
rfingers 7.12502
rthumb 20.4021 -790.838
lclavicle -1.19271e-014 -2.38542e-015
lhumerus 92.2253 -74.9835 -1.05826
lradius 57.8552
lwrist 0.490999
lhand -22.5988 -22.9476
lfingers 7.12502
lthumb 3.83056 6.99776
rfemur -51.7508 -13.7375 -0.138494
rtibia 76.4955
rfoot -30.398 -12.8026
rtoes -15.3226
lfemur -60.5299 27.0548 -20.7094
ltibia 53.4844
lfoot -8.27202 14.7329
ltoes -4.3361
741
root 27.4853 14.1324 12.521 405.413 72.798 751.752
lowerback 35.4935 -3.01938 2.34716
upperback 9.13847 -2.28281 -2.55857
thorax -7.84022 -0.647028 -3.14946
lowerneck -25.1953 15.3796 7.71144
upperneck 12.3186 25.2362 -26.9042
head 13.3933 9.43146 -5.74749
rclavicle 4.6118e-014 7.95139e-016
rhumerus -26.4995 39.0379 -85.4262
rradius 62.0586
rwrist -74.037
rhand -5.4638 -41.7404
rfingers 7.12502
rthumb 20.3477 -790.694
lclavicle 4.6118e-014 7.95139e-016
lhumerus 90.1363 -75.3753 1.12583
lradius 57.6208
lwrist 0.330896
lhand -22.3538 -22.4358
lfingers 7.12502
lthumb 4.06712 7.50512
rfemur -51.5511 -13.7272 -0.387146
rtibia 76.5277
rfoot -30.4552 -13.0152
rtoes -16.7754
lfemur -61.5097 27.3445 -21.0759
ltibia 54.8097
lfoot -7.3482 14.0287
ltoes -4.09822
742
root 27.5997 14.0943 12.3812 404.126 73.0059 750.568
lowerback 36.0765 -2.91941 2.41419
upperback 9.11419 -2.13812 -2.83812
thorax -8.08358 -0.570399 -3.5291
lowerneck -25.2499 15.3652 7.76611
upperneck 11.9917 25.0069 -26.692
head 13.1852 9.37655 -5.72663
rclavicle 7.95139e-015 -2.42517e-014
rhumerus -26.467 38.6685 -85.6753
rradius 61.6883
rwrist -74.3177
rhand -5.92893 -42.1986
rfingers 7.12502
rthumb 19.9007 -791.2
lclavicle 7.95139e-015 -2.42517e-014
lhumerus 92.7726 -75.2678 -1.49402
lradius 57.4784
lwrist 0.781532
lhand -22.3974 -22.1854
lfingers 7.12502
lthumb 4.02499 7.75637
rfemur -50.8594 -13.5707 -0.813793
rtibia 76.3692
rfoot -30.4781 -13.2044
rtoes -18.1396
lfemur -61.9946 27.4284 -21.1267
ltibia 56.3551
lfoot -6.59765 13.4606
ltoes -5.05769
743
root 27.707 14.0618 12.2339 403.573 73.4528 750.066
lowerback 36.5094 -2.90491 2.27125
upperback 9.10298 -2.15638 -2.93407
thorax -8.25111 -0.570993 -3.54405
lowerneck -25.2686 15.3656 7.72285
upperneck 11.4856 24.8119 -26.5676
head 12.9149 9.34603 -5.7095
rclavicle 0 -5.04913e-014
rhumerus -26.7746 38.2825 -86.0354
rradius 61.3508
rwrist -74.3468
rhand -5.83127 -41.5835
rfingers 7.12502
rthumb 19.9945 -790.575
lclavicle 0 -5.04913e-014
lhumerus 93.5812 -75.2867 -2.11715
lradius 57.128
lwrist 0.547288
lhand -21.8009 -22.128
lfingers 7.12502
lthumb 4.60102 7.80208
rfemur -50.0971 -13.6435 -1.27443
rtibia 76.1556
rfoot -30.403 -13.6218
rtoes -19.9763
lfemur -62.6609 27.0597 -21.1475
ltibia 57.9303
lfoot -5.41241 12.8118
ltoes -7.68189
744
root 27.8176 14.0406 12.0802 402.337 73.8245 748.952
lowerback 37.1237 -2.75516 1.99984
upperback 9.05786 -2.04087 -2.91896
thorax -8.4975 -0.511128 -3.42328
lowerneck -25.2763 15.2673 7.53934
upperneck 10.9948 24.5389 -26.4488
head 12.6211 9.27645 -5.69803
rclavicle -1.86858e-014 -3.89618e-014
rhumerus -26.7328 37.9969 -86.0486
rradius 60.8439
rwrist -74.551
rhand -5.9208 -42.2348
rfingers 7.12502
rthumb 19.9085 -791.235
lclavicle -1.86858e-014 -3.89618e-014
lhumerus 94.1069 -75.4566 -2.27041
lradius 56.7322
lwrist 0.0812869
lhand -21.3341 -21.8709
lfingers 7.12502
lthumb 5.05172 8.04888
rfemur -49.2531 -13.4025 -1.68239
rtibia 75.8367
rfoot -30.3076 -14.115
rtoes -22.0018
lfemur -63.1541 26.6436 -20.926
ltibia 59.401
lfoot -4.65396 12.557
ltoes -6.73559
745
root 27.9266 14.0155 11.9228 401.393 74.021 747.982
lowerback 37.6927 -2.44231 1.45436
upperback 8.85576 -1.84808 -2.8659
thorax -8.88565 -0.424655 -3.15065
lowerneck -25.0531 15.1728 7.38789
upperneck 10.5633 24.3093 -26.3946
head 12.3382 9.23552 -5.71501
rclavicle -2.66371e-014 1.07344e-014
rhumerus -26.9747 37.9403 -86.0869
rradius 60.4904
rwrist -75.0647
rhand -6.43009 -41.0073
rfingers 7.12502
rthumb 19.4189 -790.058
lclavicle -2.66371e-014 1.07344e-014
lhumerus 95.1956 -75.8109 -2.87918
lradius 56.3264
lwrist -0.0141492
lhand -21.5663 -21.4746
lfingers 7.12502
lthumb 4.8276 8.45036
rfemur -48.6489 -13.1179 -2.22655
rtibia 75.472
rfoot -30.1313 -14.5047
rtoes -23.1144
lfemur -63.8567 26.201 -20.9578
ltibia 60.9263
lfoot -4.64918 12.823
ltoes -4.96352
746
root 28.0337 13.9756 11.7584 401.148 74.3156 747.556
lowerback 38.0727 -2.18768 0.908293
upperback 8.62092 -1.74158 -2.78825
thorax -9.25077 -0.379804 -2.82079
lowerneck -24.7791 15.0832 7.14047
upperneck 9.99443 24.0993 -26.3915
head 11.9992 9.21458 -5.72886
rclavicle 2.94201e-014 3.18055e-015
rhumerus -27.3601 38.1328 -86.1815
rradius 59.8356
rwrist -75.5314
rhand -6.25674 -41.7767
rfingers 7.12502
rthumb 19.5855 -790.81
lclavicle 2.94201e-014 3.18055e-015
lhumerus 96.0983 -76.0872 -3.23889
lradius 55.9235
lwrist -0.0514229
lhand -21.4045 -20.8929
lfingers 7.12502
lthumb 4.98379 9.02851
rfemur -48.1458 -13.0531 -2.85427
rtibia 75.1073
rfoot -29.9654 -14.7742
rtoes -23.3684
lfemur -64.8426 25.5888 -21.2064
ltibia 62.6302
lfoot -5.27635 13.1067
ltoes -6.24331
747
root 28.1856 13.9515 11.5745 399.344 74.4529 745.889
lowerback 38.4199 -1.9721 0.694847
upperback 8.54024 -1.56632 -2.86426
thorax -9.44664 -0.296855 -2.85947
lowerneck -24.2634 14.9872 7.16878
upperneck 9.28296 23.8015 -26.5659
head 11.6227 9.1827 -5.87734
rclavicle -3.97569e-016 -2.94201e-014
rhumerus -27.6555 38.1044 -86.4287
rradius 58.7564
rwrist -75.3017
rhand -5.33977 -40.5196
rfingers 7.12502
rthumb 20.4669 -789.461
lclavicle -3.97569e-016 -2.94201e-014
lhumerus 97.5237 -76.1734 -4.37523
lradius 55.6909
lwrist 0.0270709
lhand -20.5905 -20.4504
lfingers 7.12502
lthumb 5.76968 9.45103
rfemur -46.9937 -12.7221 -3.4605
rtibia 74.4032
rfoot -29.7491 -15.0063
rtoes -24.243
lfemur -65.0748 25.2328 -21.0961
ltibia 64.5299
lfoot -6.70822 13.1965
ltoes -6.48297
748
root 28.3155 13.9131 11.3897 398.016 74.7673 744.328
lowerback 38.3481 -1.82721 0.313403
upperback 8.61389 -1.53322 -2.94282
thorax -9.33027 -0.273305 -2.75719
lowerneck -24.7314 15.1471 7.35204
upperneck 8.86532 23.8444 -26.6085
head 11.5895 9.20373 -5.87665
rclavicle -1.80894e-014 -4.1546e-014
rhumerus -27.2232 37.9098 -86.4866
rradius 58.0047
rwrist -75.273
rhand -5.48874 -41.1358
rfingers 7.12502
rthumb 20.3238 -790.092
lclavicle -1.80894e-014 -4.1546e-014
lhumerus 98.5734 -75.7271 -5.51189
lradius 55.4997
lwrist 0.416953
lhand -19.5697 -20.1815
lfingers 7.12502
lthumb 6.75525 9.69071
rfemur -46.2724 -12.6335 -3.88299
rtibia 73.7303
rfoot -29.5436 -15.0927
rtoes -24.2644
lfemur -65.9521 24.8043 -21.1447
ltibia 66.464
lfoot -7.99567 13.1856
ltoes -5.33985
749
root 28.4677 13.889 11.1916 395.145 74.7852 741.774
lowerback 38.8354 -1.58852 0.169365
upperback 8.68127 -1.29804 -3.12837
thorax -9.41014 -0.152229 -2.97554
lowerneck -25.2645 15.1764 7.1729
upperneck 8.76157 23.8103 -26.2935
head 11.5527 9.17244 -5.72352
rclavicle 1.41137e-014 -3.3694e-014
rhumerus -27.2713 37.2666 -86.6807
rradius 57.3753
rwrist -75.1003
rhand -4.82774 -40.1103
rfingers 7.12502
rthumb 20.9589 -788.998
lclavicle 1.41137e-014 -3.3694e-014
lhumerus 100.563 -75.7538 -7.23887
lradius 55.0954
lwrist 0.615251
lhand -19.0156 -19.5736
lfingers 7.12502
lthumb 7.29007 10.2808
rfemur -44.7109 -12.0578 -4.4464
rtibia 72.739
rfoot -29.7389 -14.4926
rtoes -22.8656
lfemur -65.9336 24.5227 -20.8306
ltibia 68.265
lfoot -9.47769 13.4477
ltoes -4.75044
